<svg width="100" height="100" fill="none" xmlns="http://www.w3.org/2000/svg"><path fill-rule="evenodd" clip-rule="evenodd" d="M44.702.036c12.556-.662 23.054 7.914 32.413 16.31C87.204 25.398 98.016 35.241 99.01 48.76c1.045 14.212-6.381 27.783-16.75 37.56-10.075 9.5-23.72 14.123-37.559 13.648-13.368-.46-26.33-6.013-35.062-16.145C1.447 74.315-.575 61.256.572 48.759 1.611 37.447 7.91 28.011 15.535 19.591 23.703 10.572 32.55.677 44.702.037z" fill="url(#paint0_linear_1453_4)" fill-opacity=".94"/><path d="M74.435 54.61a16.285 16.285 0 00-6.653-5.888 1.25 1.25 0 10-1.083 2.253c4.739 2.278 7.8 7.145 7.8 12.4a13.78 13.78 0 01-1.602 6.449 1.25 1.25 0 102.207 1.174A16.283 16.283 0 0077 63.375c0-3.12-.887-6.151-2.565-8.766zM54.8 75.775c-4.738-2.278-7.8-7.145-7.8-12.4 0-2.248.554-4.478 1.603-6.449a1.25 1.25 0 10-2.207-1.174 16.283 16.283 0 00-1.896 7.623c0 3.12.887 6.151 2.565 8.766a16.288 16.288 0 006.653 5.887 1.25 1.25 0 001.083-2.253z" fill="#424242"/><path d="M66.426 42.896a5.738 5.738 0 00-.555-1.021h3.254c3.17 0 5.75-2.58 5.75-5.75s-2.58-5.75-5.75-5.75h-10.01a5.716 5.716 0 001.01-3.25c0-3.17-2.58-5.75-5.75-5.75H23.75c-3.17 0-5.75 2.58-5.75 5.75s2.58 5.75 5.75 5.75h10.01a5.716 5.716 0 00-1.01 3.25c0 1.205.373 2.325 1.01 3.25H30.5c-3.17 0-5.75 2.58-5.75 5.75a5.74 5.74 0 002.177 4.5 5.74 5.74 0 000 9 5.74 5.74 0 000 9 5.74 5.74 0 00-2.177 4.5c0 3.17 2.58 5.75 5.75 5.75h14.731c3.88 4.15 9.402 6.75 15.519 6.75 11.717 0 21.25-9.533 21.25-21.25 0-9.752-6.604-17.99-15.574-20.479zm2.699-10.021a3.254 3.254 0 013.25 3.25 3.254 3.254 0 01-3.25 3.25H38.5a3.254 3.254 0 01-3.25-3.25 3.254 3.254 0 013.25-3.25h30.625zm-45.375-2.5a3.254 3.254 0 01-3.25-3.25 3.254 3.254 0 013.25-3.25h30.625a3.254 3.254 0 013.25 3.25 3.254 3.254 0 01-3.25 3.25H23.75zm6.75 11.5h30.625c.503 0 .986.117 1.418.327a21.395 21.395 0 00-1.793-.077c-5.868 0-11.188 2.391-15.037 6.25H30.5a3.254 3.254 0 01-3.25-3.25 3.254 3.254 0 013.25-3.25zm0 9h13.077a21.19 21.19 0 00-3.213 6.5H30.5a3.254 3.254 0 01-3.25-3.25 3.254 3.254 0 013.25-3.25zm0 9h9.29a21.292 21.292 0 00-.077 6.5H30.5a3.254 3.254 0 01-3.25-3.25 3.254 3.254 0 013.25-3.25zm0 15.5a3.254 3.254 0 01-3.25-3.25 3.254 3.254 0 013.25-3.25h9.723a21.168 21.168 0 003 6.5H30.5zm30.25 6.75c-10.339 0-18.75-8.411-18.75-18.75s8.411-18.75 18.75-18.75 18.75 8.411 18.75 18.75-8.411 18.75-18.75 18.75z" fill="#424242"/><defs><linearGradient id="paint0_linear_1453_4" x1=".025" y1="106.657" x2="92.713" y2="53.234" gradientUnits="userSpaceOnUse"><stop stop-color="#C5C5A8"/><stop offset="1" stop-color="#E2E1CF"/><stop offset="1" stop-color="#E2E1CF"/></linearGradient></defs></svg>