<svg width="95" height="101" fill="none" xmlns="http://www.w3.org/2000/svg"><path fill-rule="evenodd" clip-rule="evenodd" d="M53.945 0C67.609-.006 80.582 7.406 88.9 18.245c7.479 9.744 6.054 22.675 5.876 34.957-.175 12.004.99 24.887-6.877 33.955-8.265 9.529-21.352 13.625-33.955 13.117-12.139-.49-22.17-7.76-31.322-15.75C12.546 75.721.767 66.562.04 53.201c-.749-13.754 9.175-25.25 18.978-34.926C28.74 8.68 40.285.006 53.945 0z" fill="url(#paint0_linear_1453_3)" fill-opacity=".94"/><g clip-path="url(#clip0_1453_3)"><path d="M82.4 24.2a4.6 4.6 0 00-4.6 4.6c.005.77.206 1.526.584 2.197l-2.27 2.132a29.013 29.013 0 00-7.245-7.245l2.134-2.268a4.536 4.536 0 002.197.584 4.632 4.632 0 10-3.88-2.152l-2.424 2.582c-11.554-6.702-26.203-4.557-35.35 5.175-9.149 9.733-10.383 24.486-2.979 35.603L18.311 76.312a1.15 1.15 0 001.677 1.576l9.958-10.59a29.064 29.064 0 004.755 4.756l-10.589 9.958a1.15 1.15 0 001.576 1.676l10.904-10.255c12.022 8.015 28.13 5.836 37.59-5.086l4.83.416a2.448 2.448 0 01-.212 4.887 4.455 4.455 0 00-4.45 4.45v4.75a1.15 1.15 0 002.3 0V78.1a2.153 2.153 0 012.152-2.15 4.748 4.748 0 00.407-9.478l-3.32-.285a28.65 28.65 0 001.48-31.083l2.582-2.424A4.6 4.6 0 1082.4 24.2zm-9.2-6.9a2.3 2.3 0 11-1.565 3.976v-.007l-.014-.008A2.3 2.3 0 0173.2 17.3zM28.602 60.824c18.713-1.642 33.96-15.706 37.106-34.225a26.481 26.481 0 013.833 2.694C67.418 49.187 50.7 64.317 30.695 64.45a26.505 26.505 0 01-2.093-3.626zM26.05 49.5c0-2.08.247-4.15.735-6.172a41.543 41.543 0 003.191 8.076c-1.243.36-2.504.656-3.778.888a26.683 26.683 0 01-.148-2.792zm6.149 1.183a39.237 39.237 0 01-4.025-11.565 26.458 26.458 0 013.52-5.92 42.263 42.263 0 005.782 15.152 38.884 38.884 0 01-5.277 2.333zm27.074-26.75c1.469.39 2.9.907 4.278 1.546-2.718 18.087-17.644 31.854-35.891 33.106a26.265 26.265 0 01-1.116-4.025 41.563 41.563 0 0032.73-30.627zM45.956 42.265a39.78 39.78 0 01-6.198-15.934 26.38 26.38 0 013.826-1.725 44.291 44.291 0 006.478 13.124 39.367 39.367 0 01-4.106 4.535zm11.07-18.82a38.689 38.689 0 01-5.53 12.338 42.034 42.034 0 01-5.717-11.866 26.318 26.318 0 0111.246-.471zM37.642 27.63a42.098 42.098 0 006.577 16.167 39.591 39.591 0 01-4.74 3.41 39.888 39.888 0 01-5.78-16.284 26.69 26.69 0 013.943-3.293zm-5.206 39.077c19.84-.97 36.24-15.808 39.184-35.453a26.592 26.592 0 013.572 4.677C72.783 55.517 56.134 70.224 36.4 70.2h-.345a26.625 26.625 0 01-3.618-3.494zm26.579-.92a41.6 41.6 0 0012.12 2.459 26.586 26.586 0 01-4.561 3.628 39.605 39.605 0 01-13.753-2.76 41.385 41.385 0 006.194-3.326zm14.128.221a39.56 39.56 0 01-11.797-1.853 41.374 41.374 0 004.485-3.92c3.165.98 6.39 1.76 9.653 2.333a26.535 26.535 0 01-2.341 3.441zm-5.572-7.64a41.507 41.507 0 003.488-4.588 44.218 44.218 0 007.13 1.987 26.228 26.228 0 01-1.61 4.654 83.794 83.794 0 01-9.008-2.051v-.001zM39.275 72.392A41.341 41.341 0 0049.75 70.3a41.831 41.831 0 0012.91 3.617 26.378 26.378 0 01-23.385-1.527zm39.371-18.878a41.874 41.874 0 01-6.36-1.733 41.067 41.067 0 004.668-12.348 26.467 26.467 0 011.692 14.081zM82.4 31.1a2.29 2.29 0 01-1.66-.716l-.009-.014h-.007a2.293 2.293 0 111.676.73z" fill="#424242"/></g><defs><linearGradient id="paint0_linear_1453_3" x1="-.242" y1="106.994" x2="90.709" y2="56.763" gradientUnits="userSpaceOnUse"><stop stop-color="#C5C5A8"/><stop offset="1" stop-color="#E2E1CF"/><stop offset="1" stop-color="#E2E1CF"/></linearGradient><clipPath id="clip0_1453_3"><path fill="#fff" transform="translate(18 15)" d="M0 0h69v69H0z"/></clipPath></defs></svg>