<svg width="105" height="99" fill="none" xmlns="http://www.w3.org/2000/svg"><path fill-rule="evenodd" clip-rule="evenodd" d="M53.027 1.803C66.433-.517 81.63-2.067 91.974 6.77c10.774 9.204 13.062 24.79 12.458 38.948-.577 13.513-6.255 26.025-15.646 35.759-9.581 9.93-21.96 17.473-35.76 17.523-13.84.05-26.323-7.386-36.018-17.264C7.414 71.961-1.102 59.291.73 45.718 2.444 33.002 15.744 26.51 25.57 18.26c8.495-7.133 16.527-14.565 27.458-16.457z" fill="url(#paint0_linear_1453_2)" fill-opacity=".94"/><path d="M38.86 67.953a3.89 3.89 0 100 7.781 3.89 3.89 0 000-7.78zm0 5.188a1.297 1.297 0 110-2.594 1.297 1.297 0 010 2.594zm49.28-5.188a3.89 3.89 0 100 7.781 3.89 3.89 0 000-7.78zm0 5.188a1.297 1.297 0 110-2.594 1.297 1.297 0 010 2.594z" fill="#424242"/><path d="M103.497 50.392L91.825 32.236a1.297 1.297 0 00-1.09-.595H75.171v-7.133a4.544 4.544 0 00-4.54-4.54H27.837a4.544 4.544 0 00-4.54 4.54v47.336a1.297 1.297 0 001.298 1.297h5.281a9.076 9.076 0 0017.968 0h31.313a9.077 9.077 0 0017.969 0h5.281a1.296 1.296 0 001.297-1.297v-20.75c0-.25-.071-.493-.206-.702zM38.859 78.328a6.485 6.485 0 116.485-6.484 6.491 6.491 0 01-6.485 6.484zm33.72-7.781H47.843a9.077 9.077 0 00-17.969 0H25.89V57.578h46.687v12.969zm0-15.563H25.89V24.508a1.947 1.947 0 011.945-1.945h42.797a1.947 1.947 0 011.945 1.945v30.476zm19.948-16.859l7.504 11.672H81.656V38.125h10.871zm-4.386 40.203a6.484 6.484 0 116.484-6.484 6.49 6.49 0 01-6.484 6.484zm12.968-18.156h-2.593a1.297 1.297 0 010-2.594h2.593v2.594zm0-5.188h-2.593a3.891 3.891 0 000 7.782h2.593v7.78h-3.984a9.077 9.077 0 00-17.969 0h-3.984V34.235h14.854l.835 1.297H80.359a1.297 1.297 0 00-1.296 1.297v14.266a1.297 1.297 0 001.296 1.297h20.75v2.593z" fill="#424242"/><path d="M84.25 54.984h-3.89a1.297 1.297 0 100 2.594h3.89a1.297 1.297 0 100-2.594zm-27.234 7.782H67.39a1.297 1.297 0 100-2.594H57.016a1.297 1.297 0 100 2.594zm10.374 1.297H63.5a1.297 1.297 0 100 2.593h3.89a1.297 1.297 0 100-2.594z" fill="#424242"/><defs><linearGradient id="paint0_linear_1453_2" x1=".214" y1="105.59" x2="94.709" y2="47.677" gradientUnits="userSpaceOnUse"><stop stop-color="#C5C5A8"/><stop offset="1" stop-color="#E2E1CF"/><stop offset="1" stop-color="#E2E1CF"/></linearGradient></defs></svg>